<svg width="34" height="34" viewBox="0 0 34 34" fill="none" xmlns="http://www.w3.org/2000/svg">
<g clip-path="url(#clip0_120_326)">
<path d="M17.0001 21.25C11.1079 21.25 5.42549 20.3363 0.0864258 18.6502C0.16027 19.4504 0.305832 20.2207 0.489047 20.9844C5.7283 22.5316 11.2692 23.375 17.0001 23.375C22.731 23.375 28.2692 22.531 33.5087 21.0441C33.692 20.2825 33.8375 19.5068 33.9142 18.7093C28.5747 20.3336 22.8903 21.25 17.0001 21.25ZM12.7501 15.9375C15.6806 15.9375 18.0626 13.5548 18.0626 10.625C18.0626 7.69516 15.6786 5.3125 12.7501 5.3125C9.82158 5.3125 7.4376 7.69648 7.4376 10.625C7.4376 13.5535 9.82158 15.9375 12.7501 15.9375ZM12.6903 9.03125C13.6267 9.03125 14.2841 9.74844 14.2841 10.625C14.2841 11.5016 13.6267 12.2188 12.6903 12.2188C11.8104 12.2188 11.0966 11.5049 11.0966 10.625C11.0966 9.74512 11.8669 9.03125 12.6903 9.03125Z" fill="#FFBA08"/>
<path opacity="0.4" d="M33.9137 18.6469C33.9668 18.109 34 17.5578 34 17C34 16.2788 33.9403 15.5729 33.8532 14.875H29.75V10.625H24.4375V6.375H27.625V3.74066C24.7164 1.40516 21.0242 0 17 0C7.61016 0 0 7.61016 0 17C0 17.5571 0.0309984 18.1063 0.0834063 18.6502C5.42605 20.3336 11.1098 21.25 17 21.25C22.8902 21.25 28.5746 20.3336 33.9137 18.6469ZM12.75 15.9375C9.82148 15.9375 7.4375 13.5535 7.4375 10.625C7.4375 7.69648 9.82148 5.3125 12.75 5.3125C15.6785 5.3125 18.0625 7.69516 18.0625 10.625C18.0625 13.5548 15.6785 15.9375 12.75 15.9375ZM29.75 28.216C26.6422 31.7555 22.0867 34 17 34C8.98477 34 2.28437 28.4478 0.491406 21.0441C5.7282 22.5316 11.2691 23.375 17 23.375C19.8873 23.375 22.7249 23.1589 25.5 22.7488V25.5H29.75V28.216Z" fill="#FFBA08"/>
</g>
<defs>
<clipPath id="clip0_120_326">
<rect width="34" height="34" fill="white"/>
</clipPath>
</defs>
</svg>
