<svg width="285" height="453" viewBox="0 0 285 453" fill="none" xmlns="http://www.w3.org/2000/svg">
<g opacity="0.2">
<rect opacity="0.1" width="158.624" height="158.624" rx="17" transform="matrix(0.866025 -0.5 0.866025 0.5 5 373.688)" fill="url(#paint0_linear_117_73)"/>
<rect opacity="0.2" width="158.624" height="158.624" rx="17" transform="matrix(0.866025 -0.5 0.866025 0.5 5 352.574)" fill="url(#paint1_linear_117_73)"/>
<rect opacity="0.6" width="158.624" height="158.624" rx="17" transform="matrix(0.866025 -0.5 0.866025 0.5 5 331.46)" fill="url(#paint2_linear_117_73)"/>
<rect opacity="0.4" width="158.624" height="158.624" rx="17" transform="matrix(0.866025 -0.5 0.866025 0.5 5 310.346)" fill="url(#paint3_linear_117_73)"/>
<rect opacity="0.8" width="158.624" height="158.624" rx="17" transform="matrix(0.866025 -0.5 0.866025 0.5 5 289.232)" fill="url(#paint4_linear_117_73)"/>
<g style="mix-blend-mode:darken">
<rect width="158.624" height="158.624" rx="17" transform="matrix(0.866025 -0.5 0.866025 0.5 5 268.118)" fill="url(#paint5_linear_117_73)"/>
</g>
<rect width="158.624" height="158.624" transform="matrix(0.866025 -0.5 0.866025 0.5 5 241.416)" stroke="url(#paint6_linear_117_73)" stroke-width="10" stroke-linejoin="bevel"/>
<rect width="109.793" height="109.793" transform="matrix(0.866025 -0.5 2.20305e-08 1 142.109 161.386)" fill="url(#paint7_linear_117_73)"/>
<rect width="109.793" height="109.793" transform="matrix(0.866025 0.5 -2.20305e-08 1 47.0264 106.489)" fill="url(#paint8_linear_117_73)"/>
<g style="mix-blend-mode:darken">
<rect x="0.866025" width="108.793" height="108.793" transform="matrix(0.866025 -0.5 0.866025 0.5 47.1424 106.922)" fill="url(#paint9_linear_117_73)"/>
<rect x="0.866025" width="108.793" height="108.793" transform="matrix(0.866025 -0.5 0.866025 0.5 47.1424 106.922)" stroke="url(#paint10_linear_117_73)"/>
</g>
<g style="mix-blend-mode:screen" opacity="0.4">
<rect x="0.866025" width="108.793" height="108.793" transform="matrix(0.866025 -0.5 0.866025 0.5 47.4964 147.476)" fill="url(#paint11_linear_117_73)"/>
<rect x="0.866025" width="108.793" height="108.793" transform="matrix(0.866025 -0.5 0.866025 0.5 47.4964 147.476)" stroke="url(#paint12_linear_117_73)"/>
</g>
<g style="mix-blend-mode:screen" opacity="0.4">
<rect x="0.866025" width="108.793" height="108.793" transform="matrix(0.866025 -0.5 0.866025 0.5 47.4964 186.935)" fill="url(#paint13_linear_117_73)"/>
<rect x="0.866025" width="108.793" height="108.793" transform="matrix(0.866025 -0.5 0.866025 0.5 47.4964 186.935)" stroke="url(#paint14_linear_117_73)"/>
</g>
<rect width="158.566" height="158.187" transform="matrix(0.866025 -0.5 0.866025 0.5 5 82.2828)" stroke="url(#paint15_linear_117_73)" stroke-width="10" stroke-linejoin="bevel"/>
<rect width="158.188" height="159.326" transform="matrix(0.866025 -0.5 2.20305e-08 1 142.751 161.377)" stroke="url(#paint16_linear_117_73)" stroke-width="10" stroke-linejoin="bevel"/>
<path d="M5 86.2292C5 84.5723 6.1632 83.9008 7.59808 84.7292L138.639 160.386C140.074 161.214 141.238 163.229 141.238 164.886L141.238 316.942C141.238 318.598 140.074 319.27 138.639 318.442L7.59807 242.785C6.1632 241.956 5 239.942 5 238.285L5 86.2292Z" stroke="url(#paint17_linear_117_73)" stroke-width="10" stroke-linejoin="round"/>
</g>
<defs>
<linearGradient id="paint0_linear_117_73" x1="126.199" y1="126.199" x2="115.229" y2="-61.5695" gradientUnits="userSpaceOnUse">
<stop stop-color="#FFBA08"/>
<stop offset="1" stop-color="#FF9900"/>
</linearGradient>
<linearGradient id="paint1_linear_117_73" x1="126.199" y1="126.199" x2="115.229" y2="-61.5695" gradientUnits="userSpaceOnUse">
<stop stop-color="#FFBA08"/>
<stop offset="1" stop-color="#FF9900"/>
</linearGradient>
<linearGradient id="paint2_linear_117_73" x1="126.199" y1="126.199" x2="115.229" y2="-61.5695" gradientUnits="userSpaceOnUse">
<stop stop-color="#FFBA08"/>
<stop offset="1" stop-color="#FF9900"/>
</linearGradient>
<linearGradient id="paint3_linear_117_73" x1="126.199" y1="126.199" x2="115.229" y2="-61.5695" gradientUnits="userSpaceOnUse">
<stop stop-color="#FFBA08"/>
<stop offset="1" stop-color="#FF9900"/>
</linearGradient>
<linearGradient id="paint4_linear_117_73" x1="126.199" y1="126.199" x2="115.229" y2="-61.5695" gradientUnits="userSpaceOnUse">
<stop stop-color="#FFBA08"/>
<stop offset="1" stop-color="#FF9900"/>
</linearGradient>
<linearGradient id="paint5_linear_117_73" x1="126.199" y1="126.199" x2="115.229" y2="-61.5695" gradientUnits="userSpaceOnUse">
<stop stop-color="#FFBA08"/>
<stop offset="1" stop-color="#FF9900"/>
</linearGradient>
<linearGradient id="paint6_linear_117_73" x1="126.199" y1="126.199" x2="115.229" y2="-61.5695" gradientUnits="userSpaceOnUse">
<stop stop-color="#FFBA08"/>
<stop offset="1" stop-color="#FF9900"/>
</linearGradient>
<linearGradient id="paint7_linear_117_73" x1="87.3496" y1="87.3496" x2="79.7567" y2="-42.6158" gradientUnits="userSpaceOnUse">
<stop stop-color="#FFBA08"/>
<stop offset="1" stop-color="#FF9900"/>
</linearGradient>
<linearGradient id="paint8_linear_117_73" x1="87.3496" y1="87.3496" x2="79.7567" y2="-42.6158" gradientUnits="userSpaceOnUse">
<stop stop-color="#FFBA08"/>
<stop offset="1" stop-color="#FF9900"/>
</linearGradient>
<linearGradient id="paint9_linear_117_73" x1="87.3496" y1="87.3496" x2="79.7567" y2="-42.6158" gradientUnits="userSpaceOnUse">
<stop stop-color="#FFBA08"/>
<stop offset="1" stop-color="#FF9900"/>
</linearGradient>
<linearGradient id="paint10_linear_117_73" x1="87.3496" y1="87.3496" x2="79.7567" y2="-42.6158" gradientUnits="userSpaceOnUse">
<stop stop-color="#FFBA08"/>
<stop offset="1" stop-color="#FF9900"/>
</linearGradient>
<linearGradient id="paint11_linear_117_73" x1="87.3496" y1="87.3496" x2="79.7567" y2="-42.6158" gradientUnits="userSpaceOnUse">
<stop stop-color="#FFBA08"/>
<stop offset="1" stop-color="#FF9900"/>
</linearGradient>
<linearGradient id="paint12_linear_117_73" x1="87.3496" y1="87.3496" x2="79.7567" y2="-42.6158" gradientUnits="userSpaceOnUse">
<stop stop-color="#FFBA08"/>
<stop offset="1" stop-color="#FF9900"/>
</linearGradient>
<linearGradient id="paint13_linear_117_73" x1="87.3496" y1="87.3496" x2="79.7567" y2="-42.6158" gradientUnits="userSpaceOnUse">
<stop stop-color="#FFBA08"/>
<stop offset="1" stop-color="#FF9900"/>
</linearGradient>
<linearGradient id="paint14_linear_117_73" x1="87.3496" y1="87.3496" x2="79.7567" y2="-42.6158" gradientUnits="userSpaceOnUse">
<stop stop-color="#FFBA08"/>
<stop offset="1" stop-color="#FF9900"/>
</linearGradient>
<linearGradient id="paint15_linear_117_73" x1="126.152" y1="125.851" x2="115.238" y2="-61.4029" gradientUnits="userSpaceOnUse">
<stop stop-color="#FFBA08"/>
<stop offset="1" stop-color="#FF9900"/>
</linearGradient>
<linearGradient id="paint16_linear_117_73" x1="125.851" y1="126.757" x2="114.754" y2="-61.8323" gradientUnits="userSpaceOnUse">
<stop stop-color="#FFBA08"/>
<stop offset="1" stop-color="#FF9900"/>
</linearGradient>
<linearGradient id="paint17_linear_117_73" x1="113.388" y1="271.554" x2="189.332" y2="122.519" gradientUnits="userSpaceOnUse">
<stop stop-color="#FFBA08"/>
<stop offset="1" stop-color="#FF9900"/>
</linearGradient>
</defs>
</svg>
