<svg width="34" height="34" viewBox="0 0 34 34" fill="none" xmlns="http://www.w3.org/2000/svg">
<g clip-path="url(#clip0_120_375)">
<path d="M34 25.2875V25.5C34 26.775 33.1454 27.625 31.8637 27.625L2.15223 27.5652C0.870586 27.5652 0 26.775 0 25.5V25.2873C1.06316 16.8273 8.5 10.625 17 10.625C25.5 10.625 32.8777 16.8273 34 25.2875Z" fill="#FFBA08"/>
<path opacity="0.4" d="M12.75 29.6902C12.75 32.0397 14.6505 33.9402 16.9402 33.9402C19.2299 33.9402 21.1909 32.0397 21.1909 29.6902H12.75ZM19.125 10.7777V0H14.875V10.7777C15.5789 10.6316 16.2828 10.625 17 10.625C17.7172 10.625 18.4277 10.6316 19.125 10.7777Z" fill="#FFBA08"/>
</g>
<defs>
<clipPath id="clip0_120_375">
<rect width="34" height="34" fill="white"/>
</clipPath>
</defs>
</svg>
