<svg width="34" height="34" viewBox="0 0 34 34" fill="none" xmlns="http://www.w3.org/2000/svg">
<g clip-path="url(#clip0_120_441)">
<path d="M21.9605 18.7398L19.2465 11.9531C19.4836 11.5547 19.6562 11.1164 19.6562 10.625C19.6562 9.16207 18.4629 7.96875 17 7.96875C15.5371 7.96875 14.3438 9.1043 14.3438 10.625C14.3438 10.8721 14.4216 11.0952 14.4853 11.3223L10.625 16.4688C10.6249 16.4688 10.6251 16.4688 10.625 16.4688C9.1043 16.4688 7.96875 17.6043 7.96875 19.125C7.96875 20.6457 9.1043 21.7812 10.625 21.7812C11.295 21.7812 11.892 21.5094 12.3602 21.0973L18.8839 22.4021C19.3176 23.282 20.2074 23.9062 21.25 23.9062C22.7129 23.9062 23.9062 22.7129 23.9062 21.25C23.9062 20.0414 23.0695 18.9988 21.9605 18.7398ZM13.4207 18.0559L16.575 13.847L18.6794 19.1077L13.4207 18.0559Z" fill="#FFBA08"/>
<path opacity="0.4" d="M33.5884 15.4992L26.5891 3.59922C26.0513 2.69078 25.0684 2.125 23.9993 2.125H10.0009C8.93172 2.125 7.94891 2.69078 7.41102 3.59723L0.411801 15.4972C-0.134988 16.4269 -0.134988 17.5738 0.411801 18.5034L7.41102 30.4034C7.94891 31.3105 8.93172 31.875 10.0009 31.875H23.9993C25.0698 31.875 26.0539 31.3094 26.5925 30.4028L33.5917 18.5028C34.1395 17.5711 34.1395 16.4289 33.5884 15.4992ZM23.2954 27.625H10.7048L4.45661 16.9402L10.7048 6.375H23.2954L29.5442 16.9402L23.2954 27.625Z" fill="#FFBA08"/>
</g>
<defs>
<clipPath id="clip0_120_441">
<rect width="34" height="34" fill="white"/>
</clipPath>
</defs>
</svg>
