<svg width="84" height="64" viewBox="0 0 84 64" fill="none" xmlns="http://www.w3.org/2000/svg">
<path d="M81.2685 48.6943H2.20789V64H81.2685V48.6943Z" fill="white"/>
<path d="M41.9135 4.7662H41.8793V13.0639H41.9135V4.7662Z" fill="white"/>
<path d="M12.7205 48.7112C12.4758 48.511 12.238 48.3008 11.9821 48.115C10.7231 47.2001 9.55562 46.1648 8.52887 44.9942C7.66464 44.0082 6.80539 43.0073 6.05012 41.9371C5.15288 40.6667 4.40197 39.2978 3.85466 37.8347C3.5421 36.999 3.24572 36.1509 3.03215 35.2852C2.56454 33.3906 2.43067 31.4629 2.58882 29.5139C2.73328 27.7259 3.07573 25.9791 3.79178 24.3351C4.31854 23.1259 4.91005 21.9385 5.5713 20.7978C6.04327 19.9833 6.66529 19.253 7.24622 18.5059C7.68456 17.9421 8.12851 17.3752 8.63223 16.8719C9.39996 16.1042 10.21 15.377 11.0226 14.6554C12.4758 13.3651 14.0947 12.3005 15.759 11.3133C16.8057 10.6928 17.9078 10.1608 19.0043 9.62881C19.9121 9.18852 20.8411 8.78938 21.7744 8.40583C22.3759 8.15824 22.9998 7.96491 23.6175 7.75911C24.3372 7.519 25.0589 7.28388 25.7837 7.05937C26.1747 6.93838 26.5694 6.83111 26.9661 6.73071C27.9928 6.47189 29.0115 6.17191 30.0475 5.95738C31.1496 5.72912 32.2617 5.54514 33.3762 5.38486C34.5132 5.22147 35.6551 5.07803 36.8001 4.98635C38.0616 4.88532 39.3281 4.85164 40.5927 4.7924C40.9028 4.77743 41.2141 4.77057 41.5248 4.76807C41.6431 4.76745 41.7614 4.76495 41.889 4.7662V13.0633C41.7614 13.0633 41.6369 13.0633 41.5117 13.0633C35.2473 13.0651 28.9828 13.0651 22.719 13.0639C21.1256 13.0639 19.5323 13.0639 17.9396 13.0508C17.5255 13.0477 17.2086 13.2647 16.8997 13.4736C15.665 14.3093 14.4148 15.1257 13.2311 16.0294C12.3208 16.7241 11.4634 17.5005 10.654 18.3119C9.98711 18.9805 9.41241 19.7438 8.81903 20.4835C7.09741 22.6295 5.9754 25.0698 5.31664 27.7328C5.2662 27.9361 5.22636 28.1419 5.18277 28.3471C5.13732 28.5604 5.25126 28.6377 5.44117 28.6764C5.82036 28.7531 6.20329 28.8248 6.57252 28.9389C6.75558 28.9957 6.93926 29.1154 7.07313 29.2545C7.34211 29.5333 7.64658 29.7042 8.03449 29.7017C9.3545 29.6936 10.6739 29.6805 11.9939 29.6717C12.1645 29.6705 12.3364 29.6992 12.5051 29.6855C13.0692 29.6393 13.7137 29.0524 13.8344 28.4893C13.8774 28.2897 13.7728 28.1563 13.5648 28.1987C13.195 28.2729 12.8314 28.3801 12.4659 28.4743C12.388 28.4943 12.3115 28.5186 12.1732 28.5585C12.2143 28.4338 12.2629 28.3714 12.2996 28.314C12.9279 27.3349 13.675 26.5104 14.7292 25.9872C14.7709 25.9666 14.8151 25.9479 14.8487 25.918C14.8712 25.898 14.8774 25.8656 14.8905 25.8381C14.9521 25.7084 14.8655 25.5494 14.7223 25.5481C14.7093 25.5481 14.6962 25.5494 14.6844 25.5525C14.2373 25.6766 13.8195 25.8026 13.3762 25.9417C13.3488 25.9504 13.2946 25.9685 13.2162 25.9729C13.256 25.8887 13.3158 25.8126 13.355 25.7695C13.8183 25.2569 14.1981 24.7081 14.8269 24.3813C15.0586 24.2609 15.3163 24.1917 15.5623 24.1C15.6563 24.0651 15.769 24.0533 15.8412 23.9928C15.9079 23.9373 15.977 23.8188 15.9602 23.7489C15.9452 23.6859 15.8101 23.6055 15.7354 23.6123C15.5131 23.6323 15.2933 23.6697 15.0723 23.7102C15.0019 23.7233 14.9297 23.7445 14.8325 23.7508C14.8506 23.6722 15.6569 22.6924 16.2484 22.5253C16.6183 22.4205 16.8742 22.2428 17.1083 21.9197C17.5299 21.3385 18.0392 20.8209 18.5068 20.2721C18.6108 20.1498 18.693 20.0089 18.8138 19.8349C18.9134 19.9939 19.074 20.7042 19.1188 21.0179C19.15 21.2356 19.2602 21.346 19.4831 21.3659C20.0086 21.414 20.5341 21.4663 21.0578 21.5306C21.3977 21.5724 21.6829 21.6821 21.7695 22.0844C21.8379 22.4012 22.1374 22.4648 22.4027 22.5216C23.2352 22.6993 23.666 23.4308 23.4487 24.1468C23.3703 24.4062 23.0546 25.0492 22.9917 25.1303C22.9687 25.0193 21.9127 24.1031 21.2296 23.9884C21.2159 23.9847 21.2022 23.9834 21.1879 23.9834C21.026 23.9853 20.9482 24.1867 21.0565 24.3071C21.069 24.3208 21.0827 24.3339 21.0982 24.3439C21.2433 24.4443 21.4208 24.496 21.5771 24.5821C21.7738 24.69 21.8392 24.8677 21.757 25.0642C21.7371 25.111 21.6904 25.1415 21.6399 25.1372C21.5957 25.1334 21.5528 25.1234 21.5123 25.106C20.526 24.6738 19.5398 25.5319 19.5858 26.5928C19.6201 27.3786 19.7975 28.1226 20.1431 28.8167C20.4544 29.441 20.8461 30.1027 21.2184 30.7563C21.3784 30.6939 21.5123 30.6265 21.6518 30.5399C22.2844 30.1045 22.95 29.7029 23.5197 29.1946C24.6635 28.175 25.5066 26.9545 25.5751 25.3517C25.6106 24.5173 25.4375 23.7034 25.0826 22.9488C24.4499 21.6042 23.5496 20.4591 22.3523 19.5742C21.1811 18.7086 19.8685 18.1292 18.4433 17.833C17.3007 17.5953 16.1451 17.4419 14.9726 17.4974C14.6184 17.5143 13.7298 17.6047 13.568 17.6047C13.6508 17.485 15.9483 15.9732 17.2957 15.745C18.376 15.5616 19.4439 15.576 20.5179 15.7581C21.8765 15.9882 23.1181 16.537 24.1392 17.4263C25.288 18.4267 26.3845 19.5087 27.0265 20.9506C27.3857 21.757 27.5538 22.6064 27.6896 23.4676C27.6971 23.5138 27.6865 23.573 27.7114 23.6042C27.783 23.6909 27.8857 23.8425 27.9455 23.8294C28.0544 23.805 28.212 23.6903 28.2244 23.5967C28.263 23.2993 28.2898 22.9868 28.2388 22.6943C28.1285 22.0613 28.0165 21.4208 27.816 20.8128C27.4866 19.813 26.9206 18.9343 26.2195 18.1523C25.8366 17.7251 25.4424 17.2966 24.996 16.9411C24.006 16.1528 22.9245 15.5136 21.6947 15.1612C21.5883 15.1307 21.4855 15.0858 21.318 15.0246C21.4376 14.9854 24.2109 14.8319 25.5028 15.2772C26.392 15.5834 27.2656 15.9277 27.9822 16.5769C28.8838 17.3945 29.6086 18.3419 30.0096 19.4944C30.3944 20.6001 30.4983 21.7563 30.4149 22.9244C30.385 23.3417 30.2966 23.7551 30.2723 24.1724C30.2648 24.2965 30.3526 24.4886 30.4535 24.5422C30.6123 24.6264 30.7387 24.4948 30.8022 24.3302C31.1801 23.346 31.4248 22.3338 31.3277 21.2736C31.248 20.4049 31.0793 19.5561 30.6739 18.7616C30.3097 18.0481 29.8514 17.4157 29.2786 16.8632C29.1565 16.7453 29.0177 16.6461 28.8863 16.5376C28.8969 16.5139 30.9479 17.1401 31.6565 17.8311C32.3681 18.5252 32.9908 19.2904 33.2679 20.2951C33.4883 21.0928 33.6116 21.8911 33.5605 22.7124C33.4864 23.9111 33.0462 24.9638 32.2374 25.8531C32.1409 25.9591 32.007 26.0358 31.8812 26.1094C31.733 26.1961 31.6054 26.304 31.6988 26.478C31.7997 26.6664 31.9628 26.5959 32.0992 26.5011C32.8961 25.9485 33.5082 25.2413 33.8768 24.3364C34.147 23.6735 34.3015 22.9856 34.2641 22.2652C34.246 21.9116 34.1788 21.1015 34.1838 20.9974C34.2822 21.0435 35.6775 22.5465 35.8301 23.5269C36.0156 24.7212 35.8313 25.8438 35.081 26.8416C34.3064 27.8719 33.2635 28.493 32.0705 28.9009C31.8289 28.9832 31.5805 29.0462 31.3358 29.1204C31.2991 29.1316 31.2667 29.1572 31.2368 29.1734C31.3047 29.4591 31.4927 29.4772 31.6783 29.4372C32.5736 29.2458 33.4185 28.9383 34.1856 28.4169C34.8457 27.9685 35.7641 26.6077 35.8456 26.5048C35.8624 26.6526 35.8512 26.735 35.8462 26.816C35.7958 27.6068 35.6053 28.3583 35.195 29.0244C34.9229 29.4659 34.5599 29.8719 34.1695 30.2162C33.3339 30.9533 32.2959 31.2689 31.2212 31.4548C30.6951 31.5458 30.1571 31.5664 29.6266 31.6356C29.5513 31.6456 29.4766 31.6643 29.4031 31.6868C29.1733 31.7566 29.2344 32.1002 29.4741 32.0859C29.476 32.0859 29.4772 32.0859 29.4791 32.0859C29.9517 32.056 30.4267 32.0372 30.895 31.9724C31.4242 31.8994 31.9622 31.8402 32.4727 31.6799C32.5717 31.6487 32.6764 31.6069 32.7766 31.5683C32.8694 31.5327 32.9522 31.476 33.0462 31.4429C33.0767 31.4797 32.8482 31.9767 32.7062 32.1988C32.3482 32.7576 31.8159 33.0987 31.2231 33.3563C30.1484 33.8228 29.0121 33.9481 27.8552 33.9556C26.9941 33.9606 26.1323 33.9681 25.2712 33.978C25.176 33.9793 25.0807 34.0086 24.9854 34.0254C24.968 34.0541 24.9512 34.0828 24.9337 34.1115C25.011 34.1932 25.0738 34.3123 25.1685 34.3504C26.1971 34.7651 27.2238 35.1861 28.2649 35.5677C29.2798 35.9401 30.3072 36.2887 31.2225 36.8712C31.9373 37.3258 32.5213 37.9295 32.9074 38.701C32.9659 38.8176 32.979 38.9567 33.0362 39.0733C33.0692 39.14 33.1471 39.2242 33.2081 39.2267C33.2679 39.2292 33.3575 39.1506 33.388 39.0864C33.4329 38.991 33.4559 38.8756 33.4547 38.7696C33.4447 38.1796 33.4827 37.5815 33.3968 37.0021C33.1988 35.6725 33.243 34.3572 33.5624 33.0613C33.7971 32.1083 34.3282 31.2951 35.1962 30.8249C36.1271 30.3203 37.1999 30.1906 38.1806 31.0194C38.6363 31.4049 38.7615 31.9293 38.66 32.4794C38.5834 32.8929 38.4035 33.2902 38.2434 33.6837C38.1258 33.9731 38.0647 34.2387 38.3169 34.4813C38.3206 34.4845 38.3238 34.4882 38.3262 34.4926C38.3586 34.5362 38.3456 34.5986 38.3038 34.6335C38.0087 34.8805 37.3755 34.8268 37.1214 34.5362C36.7317 34.0916 36.8057 33.5951 36.9533 33.1031C37.1052 32.5954 36.6551 32.2013 36.1993 32.1894C36.1906 32.1894 36.1819 32.1894 36.1731 32.1907C35.9963 32.2081 35.9073 32.4276 36.0281 32.558C36.033 32.5636 36.0386 32.5686 36.0443 32.5736C36.3599 32.8393 36.439 33.2814 36.198 33.6444C36.0997 33.7922 35.9571 33.9107 35.8755 33.9993C35.685 33.8408 35.5399 33.7055 35.3805 33.5901C35.0393 33.3413 34.6358 33.4355 34.4216 33.814C34.1875 34.2275 34.1377 34.6447 34.2274 35.1331C34.4845 36.5269 34.9347 37.9046 34.7292 39.3514C34.6719 39.7568 34.6059 40.1759 34.449 40.5482C34.2249 41.0814 33.9665 41.6165 33.6259 42.0799C33.1209 42.7678 32.5307 43.3927 31.8258 43.8922C31.2505 44.3001 30.6528 44.6818 30.1117 45.1314C29.8284 45.3666 29.6216 45.7077 29.4243 46.0289C29.2649 46.2883 29.1466 46.5808 29.055 46.8733C28.8645 47.4814 28.7032 48.0981 28.5302 48.7118H27.0377C27.0657 48.3015 27.0893 47.8905 27.1217 47.4801C27.2618 45.6965 27.4075 43.9128 27.5439 42.1286C27.5931 41.48 27.3758 40.9131 26.9299 40.4497C26.4368 39.9377 25.8129 39.662 25.1274 39.4905C24.1909 39.256 23.2433 39.3552 22.2981 39.3371C21.0958 39.314 19.8928 39.276 18.6923 39.2018C18.0298 39.1606 17.3929 38.9729 16.825 38.5999C16.4701 38.3667 16.1202 38.1235 15.7522 37.9133C15.7279 37.8996 15.6999 37.8915 15.67 37.8871C15.4776 37.8597 15.3139 38.0449 15.3848 38.2264C15.3904 38.2407 15.3973 38.2538 15.406 38.2663C15.561 38.4877 15.7597 38.6785 15.9371 38.8843C15.9838 38.9386 16.0168 39.0041 16.0841 39.1076C15.7074 39.2242 15.3674 39.2635 15.0206 39.2279C14.5698 39.1812 14.162 39.0309 13.8195 38.7178C13.6962 38.6055 13.5269 38.5107 13.3868 38.6698C13.2498 38.8251 13.3183 38.9903 13.464 39.1194C13.609 39.2479 13.7585 39.3708 13.9011 39.5017C13.9596 39.5554 14.005 39.6221 14.0984 39.7337C13.9484 39.7768 13.8338 39.7861 13.7361 39.7892C13.0393 39.8104 12.375 39.8111 11.7741 39.3795C11.6957 39.3234 11.5238 39.3564 11.4279 39.4101C11.3787 39.4375 11.365 39.6221 11.4074 39.7063C11.474 39.8385 11.5917 39.9476 11.6988 40.0562C11.8034 40.1616 11.9223 40.2539 12.0842 40.3948C11.9441 40.4572 11.8258 40.4765 11.7467 40.4784C11.1446 40.489 10.5873 40.5127 10.0674 40.1447C9.885 40.0156 9.74179 40.0593 9.58239 40.2233C9.36384 40.4478 9.12101 40.6468 8.87195 40.8363C8.5407 41.0883 8.50957 41.2149 8.78042 41.5298C9.29162 42.1248 9.78911 42.7341 10.3327 43.2985C10.9721 43.9621 11.6427 44.5976 12.3227 45.22C12.7685 45.6285 13.2467 46.0033 13.7261 46.3731C14.2174 46.7523 14.7161 47.1246 15.2323 47.4695C15.8767 47.8998 16.5423 48.2996 17.1992 48.7118H12.7224L12.7205 48.7112ZM8.57931 33.7192C8.47782 33.7192 8.43797 33.6887 8.40621 33.675C7.91806 33.476 7.48158 33.234 7.15905 32.8131C7.04137 32.659 6.84586 32.5842 6.65657 32.6235C6.2394 32.7089 5.81787 32.7725 5.39696 32.8386C5.17966 32.8729 5.10369 33.0139 5.13171 33.2047C5.19024 33.6045 5.23196 34.0117 5.3459 34.3971C5.62423 35.3351 5.94053 36.2625 6.24002 37.1942C6.29855 37.3769 6.41997 37.4431 6.59867 37.39C6.7699 37.3389 6.93365 37.2647 7.10613 37.2185C7.42554 37.1331 7.76302 36.9585 8.06749 37.0009C9.02139 37.1337 9.87192 36.8868 10.682 36.4365C11.6583 35.8945 12.6228 35.3314 13.591 34.7751C13.6844 34.7208 13.7267 34.6092 13.6931 34.5063C13.6445 34.3578 13.5972 34.2132 13.5511 34.0685C13.4378 33.7136 13.3432 33.3507 13.2012 33.007C13.1595 32.9066 12.9858 32.8081 12.8687 32.8037C12.6906 32.7975 12.6309 32.9634 12.652 33.1255C12.6944 33.4405 12.7523 33.7535 12.8027 34.0679C12.8189 34.1664 12.832 34.2655 12.8544 34.4165C12.6975 34.3915 12.6004 34.3853 12.5082 34.3597C11.809 34.1664 11.3706 33.6706 11.0176 33.0706C10.9036 32.8773 10.781 32.5892 10.5027 32.7114C10.2343 32.8299 10.3962 33.0893 10.4553 33.2902C10.5126 33.4841 10.5817 33.675 10.6614 33.9163C10.5201 33.9038 10.4585 33.8876 10.3663 33.8577C10.126 33.7816 9.885 33.7105 9.69634 33.5596C9.42237 33.3407 9.20195 33.055 8.94169 32.8168C8.91554 32.7931 8.88503 32.7738 8.85203 32.7569C8.69201 32.6765 8.49027 32.7688 8.46225 32.9465C8.461 32.9553 8.45976 32.9646 8.45914 32.9733C8.45229 33.1081 8.50957 33.2459 8.53385 33.3831C8.55191 33.4841 8.56063 33.5864 8.57806 33.7192H8.57931ZM21.191 22.2802C20.8872 22.206 20.5696 22.1149 20.2465 22.0594C20.1711 22.0463 20.0254 22.1411 20.0036 22.2141C19.9818 22.2871 20.0503 22.4286 20.1226 22.4792C20.2857 22.5939 20.4687 22.6875 20.6555 22.7592C20.9463 22.8708 21.2452 22.6189 21.1916 22.2802H21.191Z" fill="white"/>
<path d="M34.5917 48.7112C34.55 48.6563 32.5986 47.2338 31.6597 46.5833C31.5327 46.4954 31.4156 46.4293 31.2145 46.3051C31.3471 46.201 33.1478 45.1963 33.8427 44.5271C34.555 43.8417 35.1085 43.0235 35.55 42.1279C35.9553 41.3041 36.2903 40.459 36.3731 39.5423C36.4615 38.5575 36.4821 37.5678 36.2181 36.598C36.1689 36.4165 36.1035 36.24 36.1016 36.0161C36.1627 36.0479 36.2255 36.0766 36.2785 36.1184C37.2205 36.7851 38.4235 36.6342 39.091 35.7293C39.9328 34.588 40.2223 33.3357 39.7908 31.9655C39.5685 31.2602 39.1756 30.6527 38.6177 30.1445C38.0586 29.6343 37.4011 29.4266 36.6745 29.3636C36.6514 29.3618 36.6278 29.3574 36.6072 29.3481C36.5954 29.3424 36.5885 29.3256 36.5506 29.2763C39.3058 28.4088 41.0616 26.5716 41.9003 23.8075C41.9003 24.2952 41.9003 24.7829 41.9003 25.2706C41.9003 25.7583 41.9003 26.2672 41.9003 26.7886C41.3126 27.648 40.5928 28.4014 39.741 29.0281C39.5299 29.1834 39.5249 29.3081 39.7049 29.5027C40.6793 30.5579 41.1793 31.7996 41.1775 33.2453C41.1762 34.2125 40.9097 35.0987 40.4477 35.9382C39.9041 36.9254 39.0667 37.4855 37.9696 37.68C37.8513 37.7012 37.7361 37.7418 37.6165 37.7742C37.7903 41.3403 36.4547 44.1704 33.5849 46.3195C33.6889 46.4205 33.7667 46.5078 33.8557 46.5808C34.6671 47.245 36.3719 48.6638 36.4117 48.7112H34.593H34.5917Z" fill="white"/>
<path d="M39.3924 0.000863784C39.4061 0.138067 39.4104 0.229744 39.4111 0.333894C39.4173 1.3149 39.4179 2.29528 39.4241 3.27628C39.4254 3.49394 39.3245 3.57501 39.1128 3.58811C36.7169 3.73155 34.3216 3.89619 31.9592 4.34522C30.412 4.63896 28.8616 4.94206 27.3398 5.34369C25.6593 5.7871 23.9999 6.31846 22.3506 6.86914C21.4614 7.16538 20.6034 7.56077 19.7479 7.94806C18.6377 8.45072 17.5225 8.94964 16.4485 9.5234C14.9548 10.3211 13.537 11.2441 12.1497 12.2226C10.585 13.3258 9.16975 14.5924 7.82856 15.9451C7.20654 16.5725 6.66235 17.2785 6.1001 17.9627C5.70596 18.4429 5.30871 18.9262 4.96999 19.4451C4.5248 20.1274 4.1095 20.8333 3.72906 21.5543C3.31998 22.3301 2.89969 23.1109 2.60394 23.9329C2.21852 25.0043 1.92027 26.1113 1.6407 27.217C1.35989 28.3284 1.27645 29.4728 1.23847 30.6178C1.231 30.8492 1.12017 30.9621 0.892281 30.9614C0.674978 30.9608 0.457674 30.9571 0.24037 30.9546C0.0591802 30.9521 -0.00744293 30.8436 0.000651471 30.6802C0.0959164 28.803 0.28022 26.9389 0.891659 25.1465C1.17745 24.3083 1.46885 23.4714 1.79076 22.6463C1.96261 22.2066 2.1961 21.79 2.41652 21.3703C2.72037 20.7934 2.99122 20.1916 3.35983 19.6584C4.12755 18.5476 4.91956 17.45 5.75951 16.3929C6.63059 15.2972 7.64177 14.3255 8.70089 13.4106C9.89513 12.3791 11.1056 11.3638 12.4505 10.53C13.6385 9.79407 14.8358 9.07313 16.0382 8.36154C16.418 8.1364 16.8183 7.93933 17.2268 7.77156C17.4622 7.65369 17.5823 7.47782 17.601 7.21963C17.601 6.54297 17.5979 5.86568 17.5836 5.18902C17.5798 5.00567 17.6446 4.90027 17.8083 4.8273C20.4758 3.63987 23.2036 2.6227 26.0497 1.95726C27.8112 1.54503 29.5757 1.12905 31.3571 0.819095C33.8602 0.383162 36.3856 0.103143 38.9273 0.00335839C39.0636 -0.00225448 39.2249 0.000863784 39.3924 0.000863784Z" fill="white"/>
<path d="M66.6007 48.7112C67.257 48.2983 67.9226 47.8992 68.5676 47.4689C69.0838 47.124 69.5819 46.7523 70.0738 46.3725C70.5526 46.0027 71.0308 45.6279 71.4773 45.2194C72.1572 44.597 72.8278 43.9615 73.4672 43.2979C74.0108 42.7335 74.5077 42.1242 75.0195 41.5292C75.2904 41.2143 75.2592 41.0877 74.928 40.8357C74.6789 40.6461 74.4361 40.4472 74.2175 40.2227C74.0581 40.0587 73.9149 40.015 73.7325 40.1441C73.2126 40.5114 72.6547 40.4884 72.0532 40.4778C71.9741 40.4765 71.8565 40.4566 71.7157 40.3942C71.8776 40.2532 71.9966 40.1609 72.1012 40.0555C72.2083 39.9477 72.3259 39.8379 72.3926 39.7057C72.4349 39.6215 72.4212 39.4369 72.372 39.4094C72.2761 39.3558 72.1043 39.3221 72.0258 39.3789C71.425 39.8104 70.7612 39.8098 70.0639 39.7886C69.9661 39.7855 69.8522 39.7768 69.7015 39.7331C69.7949 39.6221 69.841 39.5548 69.8989 39.5011C70.0414 39.3702 70.1915 39.2473 70.336 39.1188C70.481 38.9897 70.5495 38.8245 70.4132 38.6692C70.2731 38.5101 70.1031 38.6043 69.9804 38.7172C69.638 39.0303 69.2295 39.1806 68.7793 39.2273C68.4325 39.2635 68.0932 39.2242 67.7159 39.107C67.7831 39.0034 67.8161 38.938 67.8628 38.8837C68.0403 38.6773 68.2389 38.4871 68.3939 38.2657C68.4026 38.2532 68.4095 38.2401 68.4151 38.2257C68.4861 38.0443 68.3223 37.859 68.1299 37.8865C68.1 37.8908 68.072 37.899 68.0477 37.9127C67.6791 38.1228 67.3298 38.3661 66.9749 38.5993C66.4077 38.9723 65.7701 39.16 65.1076 39.2011C63.9071 39.2754 62.7042 39.3134 61.5018 39.3365C60.5567 39.3546 59.609 39.2554 58.6725 39.4899C57.9876 39.6614 57.3631 39.937 56.87 40.4491C56.4235 40.9124 56.2062 41.48 56.256 42.1279C56.3924 43.9122 56.5381 45.6958 56.6782 47.4795C56.7106 47.8899 56.7342 48.3008 56.7623 48.7112H55.2698C55.0967 48.0975 54.9354 47.4807 54.7449 46.8727C54.6534 46.5808 54.535 46.2877 54.3757 46.0283C54.1789 45.7077 53.9716 45.3659 53.6883 45.1308C53.1472 44.6812 52.5494 44.3001 51.9741 43.8916C51.2693 43.3915 50.679 42.7672 50.174 42.0793C49.8341 41.6159 49.5757 41.0808 49.3509 40.5476C49.194 40.1753 49.128 39.7562 49.0707 39.3508C48.8652 37.9039 49.3154 36.5257 49.5726 35.1324C49.6628 34.6441 49.6124 34.2263 49.3783 33.8134C49.1641 33.4355 48.7606 33.3407 48.4194 33.5895C48.2606 33.7055 48.1149 33.8402 47.9244 33.9986C47.8422 33.9101 47.7003 33.7916 47.6019 33.6438C47.3609 33.2814 47.44 32.8386 47.7557 32.573C47.7613 32.568 47.7669 32.563 47.7719 32.5574C47.8933 32.427 47.8042 32.2069 47.6268 32.19C47.6181 32.1894 47.6094 32.1888 47.6006 32.1888C47.1449 32.2013 46.6947 32.5948 46.8466 33.1025C46.9936 33.5945 47.0683 34.0909 46.6785 34.5356C46.4245 34.8256 45.7912 34.8799 45.4961 34.6329C45.4544 34.598 45.4419 34.5356 45.4737 34.4919C45.4768 34.4882 45.4799 34.4845 45.483 34.4807C45.7352 34.2375 45.6742 33.9718 45.5565 33.6831C45.3965 33.2895 45.2159 32.8923 45.1399 32.4788C45.0384 31.9287 45.1636 31.4042 45.6194 31.0188C46.6 30.19 47.6729 30.3203 48.6037 30.8242C49.4711 31.2945 50.0028 32.1077 50.2375 33.0607C50.557 34.3566 50.6012 35.6719 50.4032 37.0015C50.3166 37.5809 50.3546 38.179 50.3453 38.769C50.3434 38.875 50.3671 38.9903 50.4119 39.0858C50.4424 39.1506 50.5314 39.2286 50.5918 39.2261C50.6528 39.2236 50.7307 39.1394 50.7637 39.0727C50.821 38.9554 50.8347 38.8163 50.8926 38.7003C51.2786 37.9295 51.8626 37.3252 52.5774 36.8706C53.4934 36.2881 54.5201 35.9388 55.535 35.5671C56.5761 35.1854 57.6028 34.7645 58.6314 34.3498C58.7261 34.3117 58.789 34.1926 58.8662 34.1109C58.8487 34.0822 58.8319 34.0535 58.8145 34.0248C58.7192 34.0086 58.624 33.9787 58.5287 33.9774C57.6676 33.9668 56.8058 33.96 55.9447 33.955C54.7878 33.9481 53.6515 33.8221 52.5768 33.3557C51.9841 33.0981 51.4517 32.7576 51.0937 32.1982C50.9517 31.9761 50.7238 31.4791 50.7537 31.4423C50.8477 31.476 50.9305 31.5321 51.0233 31.5676C51.1236 31.6063 51.2282 31.6481 51.3272 31.6793C51.8377 31.8389 52.3757 31.8988 52.905 31.9718C53.3732 32.036 53.8483 32.0547 54.3209 32.0853C54.3227 32.0853 54.324 32.0853 54.3258 32.0853C54.5649 32.0996 54.626 31.756 54.3968 31.6861C54.3234 31.6637 54.2486 31.645 54.1733 31.635C53.6428 31.5658 53.1048 31.5452 52.5787 31.4541C51.504 31.2683 50.4661 30.9527 49.6305 30.2156C49.2401 29.8713 48.8771 29.4653 48.605 29.0238C48.1946 28.3577 48.0041 27.6068 47.9537 26.8154C47.9487 26.735 47.9375 26.652 47.9543 26.5042C48.0359 26.6065 48.9536 27.9673 49.6143 28.4163C50.382 28.9377 51.2269 29.2452 52.1217 29.4366C52.3072 29.4765 52.4953 29.4585 52.5631 29.1728C52.5339 29.1566 52.5015 29.131 52.4641 29.1198C52.2194 29.0456 51.971 28.9826 51.7294 28.9003C50.5364 28.493 49.4941 27.8719 48.7189 26.841C47.9686 25.8431 47.7843 24.7199 47.9699 23.5263C48.1224 22.5459 49.5178 21.0429 49.6161 20.9967C49.6211 21.1009 49.5539 21.9104 49.5358 22.2646C49.4991 22.9849 49.6535 23.6728 49.9231 24.3358C50.2917 25.2407 50.9038 25.9479 51.7008 26.5005C51.8371 26.5946 52.0003 26.6651 52.1011 26.4774C52.1945 26.3028 52.0669 26.1949 51.9187 26.1088C51.7923 26.0352 51.659 25.9585 51.5625 25.8525C50.7537 24.9625 50.3135 23.9104 50.2394 22.7118C50.1884 21.8904 50.3123 21.0922 50.5321 20.2945C50.8098 19.2898 51.4324 18.5246 52.1435 17.8305C52.852 17.1395 54.9024 16.5133 54.9136 16.537C54.7822 16.6449 54.6434 16.7447 54.5214 16.8626C53.9479 17.4151 53.4902 18.0469 53.126 18.761C52.7207 19.5555 52.5519 20.4043 52.4722 21.273C52.3751 22.3332 52.6198 23.3454 52.9977 24.3295C53.0612 24.4942 53.1876 24.6258 53.3464 24.5416C53.4473 24.4879 53.5351 24.2959 53.5276 24.1718C53.5033 23.7545 53.4149 23.3411 53.385 22.9238C53.3016 21.7557 53.4056 20.5995 53.7904 19.4937C54.1913 18.3419 54.9161 17.3939 55.8177 16.5763C56.5337 15.9265 57.4079 15.5828 58.2971 15.2766C59.5891 14.8313 62.3623 14.9847 62.4819 15.024C62.3144 15.0852 62.2117 15.1301 62.1052 15.1606C60.8755 15.513 59.7939 16.1522 58.8039 16.9405C58.3575 17.296 57.9633 17.7244 57.5804 18.1516C56.8793 18.9331 56.3127 19.8124 55.9839 20.8121C55.7835 21.4202 55.6714 22.0607 55.5612 22.6937C55.5101 22.9862 55.5369 23.2986 55.5755 23.5961C55.5879 23.6897 55.7455 23.805 55.8544 23.8287C55.9142 23.8418 56.0169 23.6903 56.0886 23.6036C56.1141 23.5731 56.1035 23.5132 56.1103 23.467C56.2455 22.6058 56.4142 21.7564 56.7735 20.95C57.4154 19.5081 58.5125 18.4261 59.6607 17.4257C60.6818 16.5364 61.9234 15.987 63.282 15.7575C64.3561 15.576 65.4239 15.561 66.5042 15.7444C67.8516 15.9726 70.1492 17.4843 70.232 17.6041C70.0701 17.6041 69.1816 17.5137 68.8273 17.4968C67.6555 17.4413 66.4992 17.5954 65.3567 17.8323C63.9314 18.1286 62.6189 18.7073 61.4477 19.5736C60.2503 20.4585 59.35 21.6029 58.7174 22.9482C58.3625 23.7028 58.1894 24.5166 58.2249 25.3511C58.2933 26.9539 59.1364 28.1744 60.2802 29.194C60.8499 29.7023 61.5155 30.1046 62.1482 30.5392C62.2876 30.6266 62.4209 30.6933 62.5815 30.7556C62.9539 30.1021 63.3455 29.4404 63.6568 28.8161C64.003 28.122 64.1798 27.378 64.2141 26.5921C64.2602 25.5313 63.2739 24.6732 62.2876 25.1054C62.2472 25.1228 62.2036 25.1328 62.16 25.1365C62.1095 25.1409 62.0628 25.1104 62.0429 25.0636C61.9607 24.8671 62.0261 24.6894 62.2229 24.5815C62.3792 24.4954 62.5566 24.4437 62.7017 24.3433C62.7166 24.3327 62.7303 24.3202 62.7434 24.3065C62.8517 24.1861 62.7739 23.9853 62.612 23.9828C62.5977 23.9828 62.5834 23.984 62.5703 23.9878C61.8873 24.1025 60.8313 25.0193 60.8082 25.1297C60.7447 25.0486 60.4296 24.4056 60.3512 24.1462C60.1339 23.4302 60.5648 22.6987 61.3972 22.521C61.6625 22.4642 61.962 22.4012 62.0305 22.0838C62.1176 21.6815 62.4022 21.5718 62.7422 21.53C63.2658 21.4657 63.7913 21.4133 64.3168 21.3653C64.5397 21.3454 64.6506 21.235 64.6811 21.0173C64.7259 20.7036 64.8865 19.9933 64.9862 19.8343C65.107 20.0083 65.1892 20.1492 65.2931 20.2714C65.7607 20.8203 66.2694 21.3379 66.6916 21.9191C66.9257 22.2422 67.1816 22.4199 67.5515 22.5247C68.143 22.6925 68.9493 23.6716 68.9674 23.7502C68.8702 23.7439 68.798 23.7221 68.7277 23.7096C68.5066 23.6691 68.2868 23.6323 68.0645 23.6117C67.9898 23.6049 67.8547 23.6853 67.8398 23.7483C67.823 23.8188 67.8921 23.9366 67.9587 23.9921C68.0309 24.0526 68.1436 24.0645 68.2376 24.0994C68.4836 24.1911 68.742 24.2603 68.973 24.3807C69.6019 24.7075 69.9817 25.2563 70.4449 25.7689C70.4841 25.8126 70.5439 25.888 70.5838 25.9722C70.5047 25.9679 70.4505 25.9498 70.4237 25.9411C69.9804 25.8026 69.5633 25.676 69.1156 25.5519C69.1031 25.5488 69.0907 25.5469 69.0776 25.5475C68.9344 25.5488 68.8478 25.7078 68.9095 25.8375C68.9225 25.8643 68.9288 25.8968 68.9512 25.9174C68.9842 25.9479 69.029 25.966 69.0707 25.9866C70.1249 26.5098 70.8721 27.3343 71.5003 28.3134C71.537 28.3714 71.5856 28.4332 71.6267 28.5579C71.4891 28.518 71.4119 28.4937 71.3341 28.4737C70.9679 28.3795 70.6049 28.2729 70.2351 28.1981C70.0271 28.1563 69.9231 28.2891 69.9655 28.4887C70.0863 29.0512 70.7301 29.6381 71.2948 29.6848C71.4636 29.6986 71.6354 29.6699 71.806 29.6711C73.126 29.6798 74.4454 29.6929 75.7654 29.7011C76.1533 29.7035 76.4578 29.532 76.7268 29.2539C76.8607 29.1148 77.0443 28.9951 77.2274 28.9383C77.596 28.8242 77.9789 28.7525 78.3588 28.6758C78.5487 28.6371 78.6626 28.5598 78.6172 28.3465C78.5736 28.1413 78.5337 27.9355 78.4833 27.7322C77.8245 25.0692 76.7025 22.6288 74.9809 20.4829C74.3875 19.7432 73.8128 18.9799 73.146 18.3113C72.3365 17.4999 71.4791 16.7235 70.5688 16.0287C69.3852 15.1251 68.1343 14.3081 66.9002 13.473C66.5914 13.2641 66.2744 13.0471 65.8604 13.0502C64.267 13.0627 62.6737 13.0633 61.0809 13.0633C54.8165 13.0645 48.552 13.0639 42.2882 13.0627C42.1631 13.0627 42.0385 13.0627 41.9109 13.0627V4.76621C42.0398 4.76372 42.1568 4.76746 42.2751 4.76808C42.5858 4.76996 42.8965 4.77744 43.2072 4.79241C44.4718 4.85228 45.7383 4.88595 46.9998 4.98636C48.1442 5.07804 49.2861 5.2221 50.4237 5.38488C51.5376 5.54453 52.6503 5.72851 53.7524 5.95739C54.7885 6.17192 55.8071 6.4719 56.8339 6.73072C57.2305 6.8305 57.6252 6.93839 58.0163 7.05938C58.741 7.2839 59.4627 7.51901 60.1825 7.75912C60.8001 7.96492 61.4246 8.15826 62.0255 8.40584C62.9588 8.79001 63.8878 9.18853 64.7956 9.62883C65.8921 10.1608 66.9936 10.6928 68.0409 11.3133C69.7052 12.2999 71.3241 13.3651 72.7773 14.6555C73.5899 15.377 74.3993 16.1042 75.1677 16.8719C75.6708 17.3752 76.1154 17.9421 76.5537 18.5059C77.1346 19.2536 77.756 19.9833 78.2286 20.7978C78.8899 21.9378 79.4814 23.1259 80.0081 24.3352C80.7242 25.9791 81.066 27.7259 81.2111 29.514C81.3686 31.4635 81.2348 33.3912 80.7678 35.2852C80.5542 36.1502 80.2578 36.9984 79.9453 37.8347C79.398 39.2984 78.647 40.6667 77.7498 41.9371C76.9945 43.0073 76.1353 44.0082 75.2711 44.9942C74.2443 46.1648 73.0775 47.2001 71.8179 48.115C71.5619 48.3008 71.3241 48.511 71.0794 48.7112H66.6026H66.6007ZM75.2623 33.3831C75.2866 33.2459 75.3439 33.1087 75.3371 32.9734C75.3371 32.9646 75.3358 32.9553 75.3339 32.9465C75.3059 32.7688 75.1048 32.6765 74.9442 32.7569C74.9112 32.7738 74.8806 32.7931 74.8545 32.8168C74.5942 33.0551 74.3738 33.3401 74.0998 33.5596C73.9112 33.7105 73.6702 33.7816 73.4299 33.8577C73.3377 33.887 73.2761 33.9038 73.1347 33.9163C73.2144 33.675 73.2836 33.4841 73.3408 33.2902C73.4 33.0894 73.5619 32.8299 73.2935 32.7114C73.0152 32.5892 72.8925 32.8773 72.7786 33.0706C72.4249 33.6706 71.9872 34.1658 71.288 34.3597C71.1958 34.3853 71.0987 34.3915 70.9418 34.4165C70.9642 34.2656 70.9773 34.1664 70.9935 34.0679C71.0439 33.7542 71.1024 33.4411 71.1441 33.1255C71.1659 32.9634 71.1055 32.7975 70.9275 32.8037C70.811 32.8081 70.6367 32.9066 70.595 33.007C70.453 33.35 70.3584 33.713 70.2451 34.0685C70.199 34.2138 70.1517 34.3585 70.1031 34.5063C70.0695 34.6086 70.1124 34.7208 70.2052 34.7751C71.1734 35.3314 72.1379 35.8945 73.1142 36.4365C73.9249 36.8861 74.7748 37.1337 75.7287 37.0009C76.0338 36.9585 76.3706 37.1331 76.6901 37.2186C76.8619 37.2647 77.0263 37.3389 77.1975 37.3901C77.3762 37.4437 77.4976 37.3776 77.5562 37.1942C77.8557 36.2625 78.172 35.3351 78.4503 34.3971C78.5642 34.0124 78.6059 33.6045 78.6645 33.2047C78.6925 33.0139 78.6165 32.8729 78.3992 32.8386C77.9783 32.7725 77.5568 32.7095 77.1396 32.6235C76.9497 32.5842 76.7548 32.659 76.6371 32.8131C76.3146 33.234 75.8788 33.476 75.39 33.675C75.3576 33.6881 75.3184 33.7192 75.2169 33.7192C75.2337 33.5864 75.243 33.4835 75.2611 33.3831H75.2623ZM63.1425 22.7592C63.3293 22.6875 63.5124 22.5939 63.6755 22.4792C63.7471 22.4287 63.8162 22.2865 63.7944 22.2141C63.7726 22.1411 63.6263 22.047 63.5516 22.0594C63.2278 22.115 62.9103 22.206 62.607 22.2802C62.5535 22.6189 62.8524 22.8714 63.1431 22.7592H63.1425Z" fill="white"/>
<path d="M49.2067 48.7112C49.2484 48.6563 51.1998 47.2338 52.1387 46.5833C52.2658 46.4954 52.3828 46.4293 52.5839 46.3052C52.4513 46.201 50.6506 45.1963 49.9557 44.5271C49.2434 43.8417 48.6899 43.0235 48.2484 42.1279C47.8431 41.3041 47.5081 40.459 47.4253 39.5423C47.3369 38.5575 47.3163 37.5678 47.5803 36.598C47.6295 36.4165 47.6949 36.24 47.6968 36.0162C47.6358 36.048 47.5729 36.0766 47.52 36.1184C46.5779 36.7851 45.3749 36.6342 44.7075 35.7293C43.8656 34.588 43.5761 33.3357 44.0076 31.9655C44.2299 31.2602 44.6228 30.6528 45.1807 30.1445C45.7398 29.6343 46.3973 29.4267 47.1239 29.3637C47.147 29.3618 47.1706 29.3574 47.1912 29.3481C47.203 29.3425 47.2099 29.3256 47.2479 29.2764C44.4926 28.4089 42.7368 26.5716 41.8981 23.8075C41.8981 24.2952 41.8981 24.7829 41.8981 25.2706C41.8981 25.7583 41.8981 26.2672 41.8981 26.7886C42.4858 27.648 43.2056 28.4014 44.0574 29.0281C44.2685 29.1834 44.2735 29.3082 44.0935 29.5027C43.1191 30.558 42.6191 31.7996 42.621 33.2453C42.6222 34.2126 42.8887 35.0988 43.3507 35.9382C43.8943 36.9254 44.7317 37.4855 45.8288 37.6801C45.9471 37.7013 46.0623 37.7418 46.1819 37.7742C46.0082 41.3403 47.3437 44.1704 50.2135 46.3195C50.1095 46.4205 50.0317 46.5078 49.9427 46.5808C49.1314 47.245 47.4266 48.6638 47.3867 48.7112C47.9932 48.7112 48.599 48.7112 49.2055 48.7112H49.2067Z" fill="white"/>
<path d="M44.4059 0.000894301C44.3922 0.138098 44.3879 0.229774 44.3872 0.333924C44.381 1.31493 44.3804 2.29531 44.3742 3.27631C44.3729 3.49397 44.4738 3.57504 44.6855 3.58814C47.0814 3.73158 49.4767 3.89622 51.8391 4.34525C53.3863 4.63899 54.9367 4.94209 56.4585 5.34372C58.139 5.78714 59.7984 6.31849 61.4478 6.86917C62.3369 7.16541 63.1949 7.5608 64.0504 7.94809C65.1606 8.45075 66.2758 8.94967 67.3498 9.52343C68.8436 10.3211 70.2613 11.2441 71.6486 12.2226C73.2133 13.3258 74.6286 14.5925 75.9697 15.9452C76.5918 16.5726 77.136 17.2785 77.6982 17.9627C78.0923 18.4429 78.4896 18.9262 78.8283 19.4451C79.2735 20.1274 79.6888 20.8334 80.0692 21.5543C80.4783 22.3301 80.8986 23.1109 81.1944 23.9329C81.5798 25.0043 81.878 26.1113 82.1576 27.2171C82.4384 28.3284 82.5218 29.4728 82.5598 30.6178C82.5673 30.8492 82.6781 30.9621 82.906 30.9615C83.1233 30.9608 83.3406 30.9571 83.5579 30.9546C83.7391 30.9521 83.8057 30.8436 83.7976 30.6802C83.7024 28.803 83.5181 26.9389 82.9066 25.1465C82.6209 24.3083 82.3294 23.4714 82.0075 22.6463C81.8357 22.2066 81.6022 21.79 81.3818 21.3703C81.0779 20.7934 80.8071 20.1916 80.4385 19.6584C79.6708 18.5477 78.8787 17.45 78.0388 16.393C77.1677 15.2972 76.1565 14.3256 75.0974 13.4107C73.9032 12.3791 72.6928 11.3638 71.3478 10.53C70.1598 9.7941 68.9625 9.07316 67.7601 8.36157C67.3803 8.13643 66.98 7.93936 66.5715 7.7716C66.3362 7.65373 66.216 7.47786 66.1973 7.21966C66.1973 6.543 66.2004 5.86572 66.2147 5.18905C66.2185 5.0057 66.1537 4.9003 65.99 4.82734C63.3225 3.6399 60.5947 2.62273 57.7486 1.95729C55.9871 1.54506 54.2226 1.12908 52.4412 0.819125C49.9381 0.383193 47.4127 0.103173 44.871 0.00338891C44.7347 -0.00222396 44.5734 0.000894301 44.4059 0.000894301Z" fill="white"/>
<path d="M8.11182 55.8501C8.11182 54.175 9.26558 53.4291 11.8533 53.4291C14.441 53.4291 15.5948 54.1744 15.5948 55.8501C15.5948 57.5259 14.441 58.2711 11.8533 58.2711C9.26558 58.2711 8.11182 57.5259 8.11182 55.8501ZM14.4883 55.8501C14.4883 54.8036 13.8532 54.3733 11.8527 54.3733C9.85211 54.3733 9.20394 54.8043 9.20394 55.8501C9.20394 56.896 9.85274 57.3269 11.8527 57.3269C13.8526 57.3269 14.4883 56.896 14.4883 55.8501ZM11.4635 53.1902H10.5626V52.2055H11.4635V53.1902ZM13.1428 53.1902H12.2418V52.2055H13.1428V53.1902Z" fill="black"/>
<path d="M22.7907 58.1819H16.1545V57.3132L19.7186 55.1522C20.2105 54.9059 21.0155 54.6259 21.4526 54.475L19.548 54.5504H16.271V53.6137H22.7639V54.4824L19.5623 56.5137C19.0094 56.7943 18.1078 57.1224 17.5412 57.3138L19.5212 57.2452H22.7913V58.1819H22.7907Z" fill="black"/>
<path d="M23.3717 54.455V53.5183H30.0353V54.455H27.2564V58.182H26.1643V54.455H23.3717Z" fill="black"/>
<path d="M36.0844 53.5177H37.1765V55.9524C37.1765 57.5527 35.9069 58.2568 33.8789 58.2568C31.851 58.2568 30.5883 57.5527 30.5883 55.9524V53.5177H31.6804V55.7335C31.6804 56.8548 32.3628 57.3201 33.8789 57.3201C35.3951 57.3201 36.0844 56.8548 36.0844 55.7335V53.5177ZM33.4898 53.1965H32.5888V52.2117H33.4898V53.1965ZM35.1691 53.1965H34.2681V52.2117H35.1691V53.1965Z" fill="black"/>
<path d="M37.9684 58.182V53.5183H42.5293C43.6762 53.5183 44.3935 53.9355 44.3935 55.0911C44.3935 56.0965 43.82 56.5817 42.7615 56.6434L42.345 56.6503L42.741 56.9103L44.325 58.1826H42.939L41.1433 56.7058H39.0611V58.1826H37.969L37.9684 58.182ZM39.0605 55.8776H42.4334C43.0274 55.8776 43.2665 55.6792 43.2665 55.1735C43.2665 54.6677 43.0274 54.4556 42.4334 54.4556H39.0605V55.8782V55.8776Z" fill="black"/>
<path d="M45.1511 58.182V53.5183H46.2432V56.0141L47.2538 55.262L49.9847 53.5183H51.5071L48.633 55.4672L51.6235 58.182H50.1759L47.7656 56.0004L46.2432 56.9852V58.182H45.1511Z" fill="black"/>
<path d="M56.2815 56.3104V58.1813H55.2242V56.4887C55.2242 56.0827 55.058 55.8607 54.6894 55.8607C54.2654 55.8607 54.0194 56.1314 54.0194 56.7345V58.1807H52.9622V53.8725H54.0194V55.6699C54.2224 55.2695 54.5785 55.0051 55.1252 55.0051C55.9303 55.0051 56.2802 55.5034 56.2802 56.3098L56.2815 56.3104Z" fill="#FFBA08"/>
<path d="M56.6996 56.6428C56.6996 55.8177 57.1541 55.0057 58.4573 55.0057C59.7605 55.0057 60.2207 55.8183 60.2207 56.6428C60.2207 57.4672 59.7599 58.2799 58.4573 58.2799C57.1547 58.2799 56.6996 57.4735 56.6996 56.6428ZM58.4573 57.4554C58.961 57.4554 59.1578 57.2583 59.1578 56.6428C59.1578 56.0272 58.961 55.8302 58.4573 55.8302C57.9536 55.8302 57.7568 56.0272 57.7568 56.6428C57.7568 57.2583 57.9536 57.4554 58.4573 57.4554Z" fill="#FFBA08"/>
<path d="M60.6447 58.1819V53.8738H61.7019V58.1819H60.6447Z" fill="#FFBA08"/>
<path d="M64.7005 53.8731H65.7578V58.1813H64.7005V57.7629C64.4857 58.089 64.1414 58.2799 63.6252 58.2799C62.6115 58.2799 62.2118 57.5165 62.2118 56.6365C62.2118 55.7566 62.6115 55.0057 63.6252 55.0057C64.1414 55.0057 64.4857 55.1965 64.7005 55.5227V53.8731ZM64.7005 56.6428C64.7005 56.0952 64.5162 55.8302 63.9751 55.8302C63.434 55.8302 63.2747 56.0703 63.2747 56.6428C63.2747 57.2153 63.4527 57.4554 63.9751 57.4554C64.4975 57.4554 64.7005 57.191 64.7005 56.6428Z" fill="#FFBA08"/>
<path d="M66.3535 54.7288V54.0889H67.4475V54.7288H66.3535ZM66.3722 58.1819V55.1042H67.4294V58.1819H66.3722Z" fill="#FFBA08"/>
<path d="M71.3622 56.3104V58.1813H70.3049V56.4887C70.3049 56.0827 70.1393 55.8607 69.7701 55.8607C69.346 55.8607 69.1001 56.1314 69.1001 56.7344V58.1807H68.0428V55.103H69.1001V55.6692C69.3031 55.2689 69.6592 55.0044 70.2059 55.0044C71.011 55.0044 71.3609 55.5027 71.3609 56.3091L71.3622 56.3104Z" fill="#FFBA08"/>
<path d="M74.2992 55.1042H75.3564V58.0029C75.3564 59.0002 74.8589 59.4804 73.5619 59.4804C72.4499 59.4804 71.9456 58.9634 71.9026 58.2986H72.9287C72.9654 58.5692 73.1622 58.7538 73.6167 58.7538C74.0713 58.7538 74.2992 58.5817 74.2992 58.1688V57.6213C74.0899 57.9169 73.7525 58.089 73.2481 58.089C72.2338 58.089 71.8223 57.3625 71.8223 56.5505C71.8223 55.7385 72.2338 55.0119 73.2481 55.0119C73.7518 55.0119 74.0899 55.184 74.2992 55.4734V55.1042ZM74.2992 56.5692C74.2992 56.0765 74.1273 55.8308 73.6111 55.8308C73.095 55.8308 72.8801 56.0403 72.8801 56.5692C72.8801 57.098 73.0831 57.3138 73.6111 57.3138C74.1391 57.3138 74.2992 57.0675 74.2992 56.5692Z" fill="#FFBA08"/>
</svg>
