<svg width="34" height="34" viewBox="0 0 34 34" fill="none" xmlns="http://www.w3.org/2000/svg">
<g clip-path="url(#clip0_120_390)">
<path d="M8.55313 12.9758L3.04672 9.5293C2.51547 9.19727 1.785 9.38818 1.52734 9.96094C0.672031 11.827 0.166016 13.8391 0.0332031 15.8844C0 16.4953 0.506348 17 1.1123 17H7.56234C8.08529 17 8.49203 16.585 8.55844 16.0623C8.62484 15.4398 8.77426 14.8418 8.97348 14.2694C9.1375 13.7793 8.99141 13.248 8.55313 12.9758ZM21.1836 0.53125C19.8488 0.190918 18.4477 0 17 0C15.5523 0 14.1512 0.190918 12.8164 0.53125C12.2021 0.688965 11.8867 1.3693 12.1271 1.95102L14.6094 8.85859C14.7688 9.28359 15.1672 9.5625 15.6121 9.5625H18.3846C18.8328 9.5625 19.2313 9.28027 19.3886 8.85727L21.8709 1.95102C22.1133 1.3693 21.7945 0.689297 21.1836 0.53125ZM7.4375 19.125H1.0625C0.473145 19.125 0 19.5965 0 20.1875V24.4375C0 25.0285 0.473145 25.5 1.0625 25.5H7.4375C8.02852 25.5 8.5 25.0285 8.5 24.4375V20.1875C8.5 19.5965 8.02852 19.125 7.4375 19.125ZM7.4375 27.625H1.0625C0.473145 27.625 0 28.0965 0 28.6875V32.9375C0 33.5285 0.473145 34 1.0625 34H7.4375C8.02852 34 8.5 33.5285 8.5 32.9375V28.6875C8.5 28.0965 8.02852 27.625 7.4375 27.625ZM12.5641 8.79219L10.1602 2.75586C9.92773 2.1748 9.2225 1.89258 8.67398 2.20801C6.85312 3.22867 5.24609 4.58203 3.91797 6.18375C3.51156 6.66719 3.66031 7.41094 4.19156 7.74297L9.64352 11.1881C10.0752 11.4537 10.615 11.3624 10.9796 10.9972C11.3199 10.6569 11.6935 10.3497 12.0919 10.0675C12.5641 9.775 12.7566 9.26367 12.5641 8.79219ZM26.4363 17H32.8864C33.4953 17 34 16.4953 33.9668 15.8844C33.834 13.8344 33.3276 11.825 32.4727 9.95762C32.2153 9.38486 31.4845 9.19394 30.9533 9.52598L25.4495 12.9711C25.0096 13.2451 24.8602 13.776 25.0262 14.2661C25.2344 14.8418 25.3738 15.4395 25.4402 16.0637C25.5066 16.5883 25.9117 17 26.4363 17ZM30.082 6.18375C28.7539 4.58203 27.1436 3.22867 25.3254 2.20734C24.7762 1.89258 24.0723 2.1748 23.8398 2.75586L21.424 8.79086C21.2434 9.26367 21.4359 9.775 21.8477 10.0672C22.2461 10.3411 22.6193 10.6565 22.96 10.9969C23.3252 11.3621 23.8644 11.4534 24.2961 11.1878L29.7998 7.74264C30.341 7.41094 30.4871 6.66719 30.082 6.18375ZM32.9375 19.125H26.5625C25.9715 19.125 25.5 19.5965 25.5 20.1875V24.4375C25.5 25.0269 25.9731 25.5 26.5625 25.5H32.9375C33.5269 25.5 34 25.0269 34 24.4375V20.1875C34 19.5965 33.5285 19.125 32.9375 19.125ZM32.9375 27.625H26.5625C25.9731 27.625 25.5 28.0981 25.5 28.6875V32.9375C25.5 33.5269 25.9731 34 26.5625 34H32.9375C33.5269 34 34 33.5269 34 32.9375V28.6875C34 28.0965 33.5285 27.625 32.9375 27.625Z" fill="#FFBA08"/>
<path opacity="0.4" d="M15.9375 11.7937V31.3437C15.9375 31.6359 16.1766 31.875 16.4688 31.875H17.5312C17.8218 31.875 18.0625 31.6342 18.0625 31.3437V11.7937C17.7172 11.7406 17.3652 11.6277 17 11.6277C16.6348 11.6277 16.2828 11.7406 15.9375 11.7937ZM11.6875 14.5496V31.3437C11.6875 31.6359 11.9266 31.875 12.2188 31.875H13.2812C13.5718 31.875 13.8125 31.6342 13.8125 31.3437V12.5773C12.9625 13.0687 12.2254 13.7394 11.6875 14.5496ZM20.1875 12.5773V31.3437C20.1875 31.6342 20.4282 31.875 20.7188 31.875H21.7812C22.0718 31.875 22.3125 31.6342 22.3125 31.3437V14.5496C21.7746 13.7394 21.0375 13.0687 20.1875 12.5773Z" fill="#FFBA08"/>
</g>
<defs>
<clipPath id="clip0_120_390">
<rect width="34" height="34" fill="white"/>
</clipPath>
</defs>
</svg>
