<svg width="34" height="34" viewBox="0 0 34 34" fill="none" xmlns="http://www.w3.org/2000/svg">
<g clip-path="url(#clip0_120_378)">
<path d="M22.3125 29.75H1.0625C0.481445 29.75 0 30.2314 0 30.8125V32.9375C0 33.5185 0.481445 34 1.0625 34H22.3125C22.8936 34 23.375 33.5185 23.375 32.9375V30.8125C23.375 30.2281 22.8969 29.75 22.3125 29.75ZM32.7516 7.11874L27.3746 1.74182C26.9596 1.33508 26.2789 1.33508 25.8725 1.74182L25.1168 2.49752C24.7101 2.90426 24.7101 3.58526 25.1168 3.99963L27.6237 6.4985V10.625C27.6237 12.4923 29.0102 14.0283 30.8112 14.2939V24.9687C30.8112 25.8486 30.0973 26.5625 29.2174 26.5625C28.3375 26.5625 27.6237 25.8486 27.6237 24.9687V22.8437C27.6237 19.6144 25.0086 17 21.7799 17H21.3084V20.1875H21.8397C23.3086 20.1875 24.4959 21.3748 24.4959 22.8437V24.6865C24.4959 27.1933 26.2889 29.4678 28.7791 29.7334C31.6346 30.0156 34.0584 27.7744 34.0584 24.9687V10.1336C34 9.00467 33.5484 7.91561 32.7516 7.11874Z" fill="#FFBA08"/>
<path opacity="0.4" d="M21.25 4.25C21.25 1.90918 19.3408 0 17 0H6.375C4.03418 0 2.125 1.90918 2.125 4.25L2.12501 29.75H21.25L21.25 4.25ZM17 12.75H6.375V4.25H16.9402V12.75H17Z" fill="#FFBA08"/>
</g>
<defs>
<clipPath id="clip0_120_378">
<rect width="34" height="34" fill="white"/>
</clipPath>
</defs>
</svg>
